<svg width="174" height="110" viewBox="0 0 174 110" fill="none" xmlns="http://www.w3.org/2000/svg">
<path d="M36.5327 43.9231C35.2745 42.9279 33.9658 42.0012 32.6119 41.1469C31.2212 40.3647 29.8191 39.6038 28.4062 38.8642C26.5537 37.8771 25.4487 37.3218 25.0862 37.179C24.6517 36.9995 24.2285 36.7929 23.8189 36.5603C23.4438 36.3773 23.0805 36.1701 22.7312 35.9399C22.55 35.8165 22.2478 35.5697 21.8853 35.3212C21.6831 35.1538 21.5259 34.9368 21.4283 34.6905C21.3308 34.4441 21.2961 34.1765 21.3276 33.9128C21.3276 32.1236 22.5344 31.1964 24.8842 31.1964C27.0561 31.1964 31.3412 31.9967 37.8587 33.5426C38.3618 33.6481 38.8855 33.5534 39.3226 33.2779C39.7597 33.0023 40.0771 32.5667 40.2101 32.0602C40.2101 31.9967 40.2723 31.8751 40.2723 31.8116L41.9608 15.8221C42.0169 15.3317 41.8846 14.8381 41.5916 14.4452C41.2985 14.0524 40.8677 13.7908 40.3897 13.7157C34.3121 12.4627 28.1287 11.8221 21.9284 11.8031C15.4127 11.8031 10.2816 13.9096 6.6042 18.0378C2.92679 22.1661 1.17442 28.0623 1.17442 35.5274C1.17442 42.9924 3.64328 48.8622 8.53267 52.9958C9.82063 54.1415 11.2156 55.1551 12.6969 56.0206C13.8416 56.6393 15.2918 57.4413 17.0425 58.305C18.7931 59.1688 20.0604 59.9091 20.9616 60.4115C21.6729 60.8345 22.3393 61.3316 22.9522 61.8939C23.185 62.1272 23.3692 62.4061 23.4938 62.7138C23.6184 63.0216 23.6808 63.3518 23.6774 63.6848C23.6774 65.37 22.7123 66.1526 20.839 66.1526C18.2441 66.1526 13.4773 65.1038 6.54032 63.0062C6.05178 62.8627 5.52782 62.9176 5.078 63.1593C4.62818 63.4011 4.28732 63.8111 4.1267 64.3035C4.07778 64.4387 4.05662 64.5827 4.06454 64.7266L3.04419 79.8382C3.01895 80.287 3.14181 80.7315 3.39313 81.1006C3.64446 81.4696 4.00973 81.742 4.43056 81.8742C10.4195 83.6012 16.6133 84.4755 22.8366 84.4724C29.5957 84.4724 34.7804 82.4382 38.4042 78.3012C42.0298 74.1623 43.8357 68.3613 43.8357 60.8909C43.7132 53.4929 41.3582 47.8152 36.5327 43.9231ZM170.965 12.9348H157.148C156.893 12.931 156.64 12.9796 156.403 13.0777C156.167 13.1758 155.952 13.3214 155.772 13.5059C155.592 13.6904 155.45 13.91 155.354 14.1516C155.259 14.3933 155.212 14.652 155.216 14.9126V41.6404H154.672L144.294 14.1705C144.154 13.7988 143.904 13.4807 143.58 13.2597C143.255 13.0388 142.872 12.9259 142.482 12.9366H126.374C126.119 12.933 125.866 12.9816 125.63 13.0796C125.394 13.1776 125.18 13.323 125 13.5071C124.82 13.6912 124.678 13.9102 124.582 14.1514C124.487 14.3925 124.439 14.6507 124.443 14.9108V17.8616L116.415 13.8496C116.142 13.6953 115.903 13.4833 115.716 13.2277C115.529 12.9721 115.397 12.6788 115.329 12.3672L113.827 1.89322C113.736 1.37534 113.454 0.912601 113.04 0.59944C112.626 0.286278 112.11 0.146302 111.598 0.208078C111.184 0.264484 110.804 0.460144 110.511 0.76333L103.391 8.34825C103.181 8.58316 102.915 8.758 102.619 8.85541C102.323 8.95282 102.007 8.9694 101.702 8.9035L91.5004 7.13551C90.997 7.05354 90.4821 7.17527 90.0653 7.47482C89.6484 7.77436 89.3624 8.2281 89.2681 8.73957C89.2059 9.16262 89.2681 9.59271 89.4494 9.97522L94.2766 19.3581C94.4256 19.6435 94.5036 19.9619 94.5036 20.2853C94.5036 20.6087 94.4256 20.9271 94.2766 21.2125L91.2 27.1986C90.354 23.5586 88.9677 20.7189 87.0357 18.6213C83.5966 14.8544 78.1081 12.9419 70.5634 12.9419H50.2341C49.9792 12.938 49.7262 12.9865 49.49 13.0844C49.2538 13.1823 49.0392 13.3276 48.8591 13.5117C48.6789 13.6958 48.5368 13.915 48.4411 14.1562C48.3454 14.3975 48.2982 14.6559 48.3021 14.9161V81.3947C48.2991 81.6548 48.347 81.9128 48.443 82.1537C48.539 82.3946 48.6811 82.6135 48.8611 82.7975C49.041 82.9816 49.2552 83.1271 49.491 83.2255C49.7267 83.3239 49.9794 83.3733 50.2341 83.3707H65.6774C65.9327 83.375 66.1861 83.3268 66.4228 83.229C66.6594 83.1312 66.8743 82.9858 67.0547 82.8014C67.2352 82.617 67.3774 82.3975 67.473 82.1558C67.5686 81.9141 67.6155 81.6553 67.6111 81.3947V63.3058C67.6065 62.914 67.7173 62.5297 67.929 62.2028C68.1408 61.876 68.4439 61.6216 68.7989 61.4726C69.0337 61.3739 69.2858 61.3263 69.5413 61.3299H71.5302C78.6519 61.3299 83.84 59.4755 87.16 55.8514C90.4783 52.229 92.1012 45.9767 92.1012 37.2725C92.1012 35.8517 92.0408 34.5544 91.9821 33.2605L101.637 31.5331C101.956 31.4782 102.283 31.5061 102.588 31.6142C102.894 31.7223 103.168 31.9072 103.385 32.1518L109.951 38.9699H99.1038C98.8485 38.968 98.5955 39.0184 98.3596 39.1182C98.1238 39.218 97.91 39.3652 97.7309 39.551C97.5519 39.7367 97.4112 39.9574 97.3172 40.1997C97.2233 40.4421 97.178 40.7012 97.184 40.9618V81.333C97.181 81.5931 97.2289 81.8511 97.3249 82.092C97.4208 82.3329 97.563 82.5518 97.7429 82.7358C97.9229 82.9199 98.137 83.0654 98.3728 83.1638C98.6086 83.2623 98.8612 83.3116 99.1159 83.309H114.62C115.004 83.3151 115.381 83.2022 115.701 82.985C116.021 82.7679 116.269 82.4568 116.412 82.0927C116.508 81.853 116.557 81.5939 116.553 81.3348V41.0746C116.556 40.8146 116.508 40.5566 116.412 40.3158C116.316 40.075 116.173 39.8562 115.993 39.6723C115.813 39.4884 115.599 39.3431 115.363 39.2449C115.127 39.1467 114.874 39.0976 114.62 39.1004H113.839C113.9 38.977 113.9 38.8518 113.958 38.7302L115.466 28.2351C115.509 27.9159 115.63 27.6128 115.818 27.3536C116.005 27.0944 116.253 26.8872 116.54 26.7509L124.568 22.7407V81.5216C124.565 81.7815 124.613 82.0394 124.708 82.2802C124.804 82.521 124.946 82.7398 125.126 82.9238C125.306 83.1078 125.52 83.2534 125.755 83.3519C125.991 83.4504 126.243 83.5 126.498 83.4976H140.135C140.52 83.5048 140.898 83.3926 141.22 83.1758C141.541 82.9589 141.79 82.6477 141.934 82.2831C142.029 82.0416 142.078 81.7825 142.074 81.5216V55.5922H142.737L153.857 82.195C154.005 82.5437 154.249 82.8407 154.561 83.049C154.872 83.2574 155.236 83.368 155.608 83.3672H170.994C171.25 83.3712 171.503 83.3229 171.739 83.225C171.976 83.127 172.19 82.9816 172.371 82.7972C172.551 82.6129 172.693 82.3934 172.788 82.1519C172.884 81.9103 172.931 81.6516 172.926 81.3912V14.9126C172.929 14.6524 172.881 14.3942 172.785 14.1532C172.689 13.9122 172.547 13.6932 172.367 13.5091C172.187 13.325 171.972 13.1796 171.736 13.0812C171.5 12.9829 171.248 12.9337 170.993 12.9366L170.965 12.9348ZM72.535 44.9579C72.3045 45.5314 71.9003 46.0146 71.3816 46.3369C70.8628 46.6591 70.2567 46.8034 69.6518 46.7488H69.1805C68.7963 46.7549 68.4194 46.6419 68.0994 46.4248C67.7795 46.2076 67.5315 45.8965 67.3884 45.5325C67.2936 45.2917 67.2466 45.034 67.2503 44.7745V32.8763C67.2475 32.6165 67.2955 32.3588 67.3915 32.1183C67.4875 31.8777 67.6295 31.6591 67.8092 31.4752C67.989 31.2914 68.2028 31.146 68.4383 31.0476C68.6737 30.9492 68.9261 30.8997 69.1805 30.9021C70.8275 30.9021 71.8945 31.5225 72.4383 32.693C72.9822 33.8652 73.2981 35.9628 73.2981 38.8025C73.2981 41.6422 73.0392 43.7416 72.5575 44.9755L72.535 44.9579ZM16.7421 103.555C16.5541 103.359 16.3522 103.177 16.1378 103.011C15.9531 102.829 15.7242 102.701 15.4749 102.641C15.2314 102.577 15.0622 102.455 14.8119 102.392C14.656 102.341 14.4921 102.319 14.3285 102.329H14.1489C13.8433 103.02 13.3634 103.615 12.7608 104.056C12.0875 104.476 11.314 104.691 10.5285 104.677C9.98476 104.684 9.44588 104.571 8.9484 104.347C8.45092 104.123 8.00649 103.792 7.64526 103.377C6.88485 102.44 6.46872 101.262 6.46872 100.045C6.46872 98.8282 6.88485 97.6496 7.64526 96.7126C8.02375 96.3038 8.48339 95.9822 8.99343 95.7694C9.50346 95.5566 10.0521 95.4575 10.6027 95.4787C11.3426 95.4719 12.0712 95.6634 12.7159 96.034C13.3271 96.413 13.8105 96.9717 14.1023 97.638H14.2836C14.4649 97.638 14.5857 97.5763 14.767 97.5763L15.3713 97.3912C15.599 97.281 15.8204 97.1574 16.0342 97.0211C16.25 96.8501 16.452 96.665 16.6385 96.4641C16.8336 96.2423 16.9965 95.993 17.1219 95.7237C17.2393 95.4276 17.3015 95.1138 17.3032 94.7948C17.31 94.4103 17.2271 94.0297 17.0615 93.6843C16.8568 93.2571 16.5928 92.8623 16.2777 92.5121C15.8777 92.1104 15.4326 91.7583 14.9517 91.4633C14.3362 91.0997 13.6631 90.8491 12.9628 90.7229C12.0896 90.5288 11.1994 90.4254 10.3058 90.4145C8.98501 90.4145 7.67461 90.6665 6.44363 91.1548C5.30875 91.5823 4.27844 92.2565 3.42402 93.1308C2.58324 93.9928 1.92557 95.0225 1.49209 96.1556C1.02594 97.3913 0.79459 98.708 0.813581 100.034C0.818761 101.775 1.23139 103.488 2.02039 105.034C2.80298 106.471 3.9513 107.664 5.34387 108.489C6.84222 109.322 8.52554 109.747 10.2315 109.723C11.1439 109.713 12.053 109.61 12.9456 109.416C13.6634 109.242 14.3559 108.972 15.0052 108.614C15.499 108.315 15.9445 107.939 16.3312 107.504C16.6644 107.169 16.9303 106.771 17.1133 106.332C17.2808 105.986 17.3636 105.604 17.355 105.219C17.3539 104.901 17.2929 104.587 17.1754 104.292C17.1161 104.004 16.9624 103.745 16.7421 103.555ZM45.4638 92.2583C45.3941 92.0044 45.272 91.7687 45.1059 91.5668C44.9398 91.365 44.7333 91.2017 44.5004 91.0878C43.7139 90.7816 42.8711 90.6552 42.0316 90.7177C41.1707 90.6586 40.3072 90.7847 39.4971 91.0878C39.024 91.3346 38.658 91.7506 38.4716 92.2583L32.6119 107.811V107.934C32.6374 108.152 32.7451 108.351 32.9123 108.489C33.6253 109.156 34.5421 109.547 35.5072 109.6C36.8936 109.6 37.9191 108.736 38.5251 106.947L39.0085 105.538H44.8785L45.3619 106.896C45.6122 107.722 46.095 108.454 46.75 109.002C47.2801 109.39 47.9102 109.605 48.5628 109.623C49.105 109.623 49.6436 109.498 50.1305 109.252C50.569 109.08 50.9592 108.805 51.2751 108.45C51.4321 108.304 51.5381 108.109 51.5773 107.895V107.772L45.4638 92.2583ZM40.0323 101.394L41.9642 96.0216L43.8962 101.393L40.0323 101.394ZM80.097 99.54C79.5013 99.087 78.8515 98.7133 78.1634 98.4277C77.3617 98.0968 76.5363 97.8292 75.6945 97.6274C75.3923 97.5658 75.0298 97.5041 74.6068 97.4406C74.2828 97.396 73.9612 97.3342 73.6434 97.2555C73.4 97.1921 73.16 97.1339 72.9805 97.0704C72.7992 97.0057 72.6342 96.9009 72.497 96.7637C72.4329 96.6886 72.3883 96.5982 72.3675 96.5008C72.3467 96.4035 72.3503 96.3023 72.3779 96.2067C72.3779 95.2795 73.1617 94.7877 74.7915 94.7877C75.6651 94.7877 76.5284 94.9763 77.3243 95.343C78.1357 95.6955 78.8885 96.1767 79.5566 96.7637C79.6429 96.7655 79.7258 96.7443 79.7983 96.7003C79.9849 96.5927 80.149 96.449 80.2817 96.2772C80.4786 96.0869 80.6598 95.8789 80.8256 95.6603C81.0207 95.4153 81.183 95.1456 81.3073 94.8582C81.4247 94.5639 81.4868 94.2501 81.4885 93.9311C81.4885 92.9457 80.9447 92.0785 79.7379 91.4034C78.5311 90.73 76.9013 90.418 74.669 90.418C72.1966 90.418 70.3234 90.975 68.9975 92.1031C68.3477 92.6471 67.83 93.3372 67.4849 94.1194C67.1399 94.9017 66.9769 95.7549 67.0086 96.6122C67.012 97.3067 67.1346 97.9959 67.3711 98.6463C67.5541 99.2068 67.8649 99.7145 68.2775 100.129C68.6712 100.566 69.1408 100.922 69.6639 101.179C70.1835 101.49 70.736 101.738 71.3127 101.92C71.917 102.105 72.5178 102.29 73.1255 102.413L73.968 102.598L74.7501 102.783C74.9314 102.847 75.1627 102.907 75.3561 102.968C75.5477 103.027 75.7307 103.109 75.8999 103.219C76.0277 103.288 76.133 103.395 76.2003 103.525C76.3039 103.666 76.3454 103.843 76.3212 104.019C76.3212 105.006 75.4752 105.501 73.7867 105.501C72.7965 105.479 71.8188 105.269 70.9035 104.883C70.0265 104.523 69.2116 104.022 68.4899 103.399C68.4051 103.396 68.3214 103.418 68.2482 103.462C68.0738 103.585 67.9115 103.726 67.7647 103.885C67.5728 104.062 67.4106 104.271 67.2848 104.502C67.125 104.736 66.9869 104.984 66.8722 105.244C66.7553 105.494 66.6934 105.767 66.6909 106.044C66.6909 106.541 66.8152 107.031 67.0534 107.465C67.3608 107.964 67.7717 108.385 68.2603 108.699C68.9508 109.113 69.7053 109.404 70.4926 109.563C71.5845 109.788 72.6971 109.891 73.8109 109.871C76.4697 109.871 78.519 109.314 79.8449 108.265C80.5378 107.716 81.0879 107.001 81.4471 106.183C81.8062 105.366 81.9633 104.471 81.9046 103.577C81.9248 102.807 81.7587 102.044 81.4212 101.356C81.1618 100.632 80.7017 100.001 80.097 99.54ZM101.454 90.6489H100.671C99.1021 90.6489 98.3787 91.5126 98.3787 93.3035V106.762C98.3787 108.553 99.1608 109.416 100.671 109.416H101.455C103.023 109.416 103.869 108.553 103.869 106.762V93.367C103.869 91.5761 103.021 90.6489 101.454 90.6489ZM135.728 90.6489H135.246C133.599 90.6489 132.832 91.5126 132.832 93.3035V100.652L126.375 92.0115C126.074 91.6004 125.706 91.2451 125.288 90.9609C124.854 90.7548 124.375 90.6697 123.9 90.7141H123.356C123.042 90.6849 122.726 90.7309 122.433 90.8484C122.14 90.9659 121.878 91.1517 121.667 91.391C121.236 91.9516 121.02 92.6549 121.063 93.367V106.823C121.063 108.614 121.845 109.478 123.414 109.478H123.896C125.543 109.478 126.31 108.614 126.31 106.823V99.4166L132.898 108.265C133.202 108.657 133.571 108.99 133.986 109.252C134.419 109.457 134.897 109.543 135.374 109.499H135.857C136.165 109.531 136.475 109.485 136.762 109.367C137.048 109.249 137.303 109.061 137.502 108.821C137.943 108.265 138.159 107.559 138.108 106.846V93.367C138.108 91.5761 137.326 90.6489 135.757 90.6489H135.728ZM172.234 95.031C171.448 93.5785 170.278 92.3812 168.857 91.5761C167.354 90.7558 165.675 90.3267 163.97 90.3267C162.266 90.3267 160.587 90.7558 159.083 91.5761C157.65 92.3644 156.476 93.5659 155.706 95.031C154.884 96.5627 154.468 98.2872 154.5 100.034C154.494 101.364 154.741 102.685 155.225 103.922C155.67 105.062 156.338 106.099 157.187 106.968C158.037 107.837 159.05 108.52 160.166 108.978C161.397 109.471 162.707 109.723 164.03 109.718C165.735 109.743 167.417 109.32 168.916 108.489C170.32 107.688 171.486 106.514 172.291 105.093C173.07 103.533 173.47 101.805 173.459 100.054C173.449 98.3033 173.027 96.5808 172.229 95.031H172.234ZM166.88 103.429C166.501 103.819 166.05 104.129 165.553 104.341C165.057 104.553 164.523 104.662 163.985 104.662C163.446 104.662 162.913 104.553 162.416 104.341C161.919 104.129 161.468 103.819 161.09 103.429C160.315 102.505 159.925 101.31 160.002 100.097C159.934 98.8654 160.322 97.6528 161.09 96.7003C161.446 96.2835 161.891 95.9557 162.391 95.7418C162.891 95.5279 163.432 95.4337 163.973 95.4664C164.518 95.4449 165.062 95.5505 165.561 95.7753C166.061 96.0001 166.504 96.3381 166.856 96.7637C167.561 97.7258 167.941 98.8948 167.941 100.096C167.941 101.297 167.561 102.466 166.856 103.429H166.88Z" fill="url(#paint0_linear_399_652)"/>
<defs>
<linearGradient id="paint0_linear_399_652" x1="87.136" y1="0.193787" x2="87.136" y2="109.874" gradientUnits="userSpaceOnUse">
<stop offset="0.768602" stop-color="white"/>
<stop offset="0.804077" stop-color="white"/>
</linearGradient>
</defs>
</svg>
